<?xml version="1.0" encoding="UTF-8"?>
<svg version="1.1" xmlns="http://www.w3.org/2000/svg" width="40" height="40">
<path d="M0 0 C4.37859255 0.50522222 6.81651224 3.17827222 10 6 C10.39832031 5.566875 10.79664063 5.13375 11.20703125 4.6875 C11.73683594 4.130625 12.26664063 3.57375 12.8125 3 C13.59560547 2.1646875 13.59560547 2.1646875 14.39453125 1.3125 C16 0 16 0 19 0 C18.49477778 4.37859255 15.82172778 6.81651224 13 10 C13.433125 10.39832031 13.86625 10.79664063 14.3125 11.20703125 C15.1478125 12.00173828 15.1478125 12.00173828 16 12.8125 C16.556875 13.33457031 17.11375 13.85664063 17.6875 14.39453125 C19 16 19 16 19 19 C14.62140745 18.49477778 12.18348776 15.82172778 9 13 C8.60167969 13.433125 8.20335937 13.86625 7.79296875 14.3125 C7.26316406 14.869375 6.73335937 15.42625 6.1875 16 C5.66542969 16.556875 5.14335937 17.11375 4.60546875 17.6875 C3 19 3 19 0 19 C0.50522222 14.62140745 3.17827222 12.18348776 6 9 C5.566875 8.60167969 5.13375 8.20335937 4.6875 7.79296875 C4.130625 7.26316406 3.57375 6.73335937 3 6.1875 C2.1646875 5.40439453 2.1646875 5.40439453 1.3125 4.60546875 C0 3 0 3 0 0 Z " fill="#232323" transform="translate(11,11)"/>
</svg>
